<?xml version="1.0" encoding="utf-8"?>
<!-- Generator: Adobe Illustrator 16.0.0, SVG Export Plug-In . SVG Version: 6.00 Build 0)  -->
<!DOCTYPE svg PUBLIC "-//W3C//DTD SVG 1.1//EN" "http://www.w3.org/Graphics/SVG/1.1/DTD/svg11.dtd">
<svg version="1.1" id="Layer_1" xmlns="http://www.w3.org/2000/svg" xmlns:xlink="http://www.w3.org/1999/xlink" x="0px" y="0px"
	 width="120px" height="120px" viewBox="0 0 120 120" enable-background="new 0 0 120 120" xml:space="preserve">
<g>
	<path fill="#4AD6D9" d="M120,108c0,6.6-5.4,12-12,12H12c-6.6,0-12-5.4-12-12V12C0,5.4,5.4,0,12,0h96c6.6,0,12,5.4,12,12V108z"/>
</g>
<path fill="#00A4AA" d="M19.927,67.975V96c0,2.209,1.742,4,3.89,4h72.285c2.148,0,3.892-1.791,3.892-4V28c0-2.209,0.202-5-1.945-5
	L62.799,55.607L47.889,42.25L34.442,57.203C34.442,57.203,19.927,65.764,19.927,67.975z"/>
<path fill="#EAFEFF" d="M92.027,21.979c4.604-4.412,10.1,2.9,7,6c-2.601,2.6-33.283,33.103-33.283,33.103
	c-1.758,1.757-4.432,1.562-6.365,0c-2.18-1.764-10.935-9.103-11.352-9.103L27.615,72.023c-2.92,1.92-4.833,0.709-6.587-1.045
	c-1.753-1.754-0.92-5.246,1-7L44.78,41.718c1.754-1.754,4.597-1.754,6.35,0c1.753,1.753,10.897,9.26,10.897,9.26
	S71.744,41.412,92.027,21.979z"/>
</svg>