<svg width="504px" height="245px" viewBox="0 0 504 245" version="1.1" xmlns="http://www.w3.org/2000/svg" xmlns:xlink="http://www.w3.org/1999/xlink">
  <!-- Generator: Sketch 46.2 (44496) - http://www.bohemiancoding.com/sketch -->
  <title>PageNotAvailable</title>
  <desc>Created with Sketch.</desc>
  <defs></defs>
  <g id="Page-1" stroke="none" stroke-width="1" fill="none" fill-rule="evenodd">
    <g id="InitialLoadingError" transform="translate(-388.000000, -339.000000)">
      <g id="PageNotAvailable" transform="translate(390.000000, 332.000000)">
        <g id="Mountain" transform="translate(0.000000, 196.238298)">
          <path d="M17.167382,39.1404255 L500,39.1404255" id="HorizonLineBack2" stroke="#C2E8FF" stroke-width="3.21888412" stroke-linecap="round"></path>
          <path d="M0,39.1404255 L6.43776824,39.1404255" id="HorizonLineBack1" stroke="#C2E8FF" stroke-width="3.21888412" stroke-linecap="round"></path>
          <polyline id="MountainLine4" stroke="#C2E8FF" stroke-width="3.21888412" stroke-linecap="round" stroke-linejoin="round" points="46.1373391 38.6042553 93.8841202 0 130.364807 28.9531915"></polyline>
          <polyline id="MountainLine1" stroke="#C2E8FF" stroke-width="3.21888412" stroke-linecap="round" stroke-linejoin="round" points="119.098712 18.2297872 130.364807 9.65106383 164.16309 38.6042553"></polyline>
          <path d="M54.6812484,15.4835367 L61.1587983,38.6042553 L49.109676,27.9949097 L52.614889,15.4835367 L52.614889,15.4835367 C52.7747521,14.9129273 53.3669171,14.5799517 53.9375265,14.7398148 C54.2982726,14.8408822 54.580181,15.1227906 54.6812484,15.4835367 Z" id="MountainTree" fill="#C2E8FF" transform="translate(55.134237, 26.408401) scale(-1, 1) translate(-55.134237, -26.408401) "></path>
        </g>
        <g id="Tree2" transform="translate(412.553648, 166.748936)">
          <g id="Tree2White" fill="#FFFFFF">
            <path d="M20.3014084,2.09539245 L35.6853873,55.1629696 L35.6853873,55.1629696 C36.0153722,56.3012644 35.3601077,57.4915403 34.2218128,57.8215253 C34.0276408,57.8778147 33.8264886,57.906383 33.6243222,57.906383 L2.85636453,57.906383 L2.85636453,57.906383 C1.67120412,57.906383 0.710441782,56.9456206 0.710441782,55.7604602 C0.710441782,55.5582938 0.739010095,55.3571416 0.795299429,55.1629696 L16.1792782,2.09539245 L16.1792782,2.09539245 C16.5092632,0.957097632 17.6995392,0.301833037 18.837834,0.631818018 C19.5442776,0.836611855 20.0966146,1.3889489 20.3014084,2.09539245 Z" id="Tree2WhiteBkgd"></path>
          </g>
          <g id="Tree2LightBlue" stroke="#C2E8FF" stroke-width="3.21888412" stroke-linecap="round">
            <polygon id="Tree2LightBlueOutline1" stroke-linejoin="round" points="18.2403433 0.347377884 36.4806867 57.906383 -1.81721305e-12 57.906383"></polygon>
            <path d="M18.2403433,5.0349734 C18.2403433,46.1595686 18.2403433,67.1791164 18.2403433,68.093617 C18.2403433,67.1791164 18.2403433,46.1595686 18.2403433,5.0349734 Z" id="Tree2LightBlueLine2"></path>
            <path d="M18.2403433,31.4452502 C23.962804,38.3738749 26.8240343,41.948343 26.8240343,42.1686545 C26.8240343,41.948343 23.962804,38.3738749 18.2403433,31.4452502 Z" id="Tree2LightBlueLine1" stroke-linejoin="round" transform="translate(22.532189, 36.806952) scale(-1, 1) translate(-22.532189, -36.806952) "></path>
          </g>
        </g>
        <g id="Tree1" transform="translate(365.879828, 131.361702)">
          <g id="Tree1White" transform="translate(1.072961, 0.000000)" fill="#FFFFFF">
            <path d="M27.5191924,0 L54.5906714,90.5329098 L54.5906714,90.5329098 C54.9302075,91.6683923 54.2849655,92.8641311 53.149483,93.2036672 C52.9500037,93.2633162 52.7429052,93.293617 52.5346985,93.293617 L2.50368627,93.293617 L2.50368627,93.293617 C1.31852586,93.293617 0.357763519,92.3328547 0.357763519,91.1476943 C0.357763519,90.9394876 0.388064343,90.7323892 0.447713383,90.5329098 L27.5191924,0 Z" id="Tree1WhiteBkgd"></path>
          </g>
          <g id="Tree1LightBlue" stroke="#C2E8FF" stroke-width="3.21888412" stroke-linecap="round">
            <polygon id="Tree1LightBlueOutine" stroke-linejoin="round" points="28.4334764 0 56.3304721 93.293617 0.536480687 93.293617"></polygon>
            <path d="M28.4334764,3.84586935 C28.4334764,68.657779 28.4334764,101.86944 28.4334764,103.480851 C28.4334764,101.86944 28.4334764,68.657779 28.4334764,3.84586935 Z" id="Tree1LightBlueLine3"></path>
            <path d="M16.7895787,45.0382979 C24.6579621,52.6290655 28.5921538,56.5609804 28.5921538,56.8340426 C28.5921538,56.5609804 24.6579621,52.6290655 16.7895787,45.0382979 Z" id="Tree1LightBlueLine2" stroke-linejoin="round"></path>
            <path d="M29.6651152,72.9191489 C39.6794213,61.2077889 44.6865744,55.48864 44.6865744,55.7617021 C44.6865744,55.48864 39.6794213,61.2077889 29.6651152,72.9191489 Z" id="Tree1LightBlueLine1" stroke-linejoin="round"></path>
          </g>
        </g>
        <g id="Axe" transform="translate(275.018541, 87.755984) rotate(-45.000000) translate(-275.018541, -87.755984) translate(188.108669, 51.296410)">
          <g id="AxeWhite" transform="translate(5.364807, 47.182979)" fill="#FFFFFF">
            <path d="M4.49514999,1.06763476 L0.123642033,12.8203933 C12.9783257,20.8652936 19.6715504,24.9871801 20.2033159,25.1860527 C20.5653652,25.3214539 23.3489852,25.7790445 28.9379778,25.496317 C30.684595,25.4079617 33.9427743,25.0524043 38.7125157,24.4296447 C42.9680249,23.2513645 46.1669309,22.2148054 48.3092338,21.3199675 C50.4515366,20.4251296 54.0199128,18.6350011 59.0143625,15.949582 L50.9954257,3.45163423 L4.49514999,1.06763476 Z" id="AxeEdge"></path>
          </g>
          <g id="AxeLightBlue" transform="translate(1.072961, 0.000000)" fill="#C2E8FF">
            <rect id="HandleShortBkgd" stroke="#8CD3F8" stroke-width="3.21888412" stroke-linecap="round" stroke-linejoin="round" x="1.04424926" y="11.7912633" width="12.3390558" height="12.8680851"></rect>
            <path d="M5.12612818,53.8620277 C14.2555816,56.4439861 23.0482372,57.6851159 31.5040949,57.5854173 C39.9599526,57.4857186 48.0435174,55.4829974 55.7547894,51.5772535 C53.7286751,47.6838101 52.3419268,44.8129401 51.5945445,42.9646436 C50.8471622,41.116347 49.9180532,38.26004 48.8072175,34.3957224 L48.5993905,0.314415531 L13.4866274,0.158913159 L13.4899615,34.3327809 C12.4183448,39.1000211 11.394522,42.6231371 10.4184931,44.9021291 C9.44246422,47.181121 7.67834258,50.1677539 5.12612818,53.8620277 Z" id="AxeShapeBkgd"></path>
            <path d="M48.7490355,11.5810916 L172.676074,11.5810916 L172.676074,31.3204751 C148.923706,26.7172605 130.146882,24.5239957 116.345602,24.7406806 C111.531683,24.7406806 104.038505,24.7406806 93.8660658,24.7406806 L48.7490355,24.7406806 L48.7490355,11.5810916 Z" id="HandleLongBkgd"></path>
          </g>
          <g id="AxeDarkBlue" transform="translate(0.000000, 0.000000)">
            <path d="M14.4866035,4.60128599e-13 L49.8985161,4.60128599e-13 L49.8985161,25.7915168 C49.4426402,31.7529499 50.4465301,37.6635058 52.9101857,43.5231846 C55.3738413,49.3828634 59.1988486,55.8307426 64.3852076,62.8668222 C53.1177809,69.3147014 42.3868983,72.538641 32.1925598,72.538641 C21.9982214,72.538641 11.2673387,69.3147014 -8.79847614e-05,62.8668222 C6.17390301,54.254856 10.1614418,47.8069768 11.9625283,43.5231846 C13.7636149,39.2393924 14.6049733,33.3288365 14.4866035,25.7915168 L14.4866035,4.60128599e-13 Z" id="AxeShapeOutline" stroke="#8CD3F8" stroke-width="3.21888412" stroke-linecap="round" stroke-linejoin="round"></path>
            <rect id="HandleShort" stroke="#8CD3F8" stroke-width="3.21888412" stroke-linecap="round" stroke-linejoin="round" x="2.11721063" y="11.7912633" width="12.3390558" height="12.8680851"></rect>
            <path d="M49.8219968,11.5810916 L173.749035,11.5810916 L173.749035,31.3204751 C149.996667,26.7172605 131.219843,24.5239957 117.418563,24.7406806 C112.604645,24.7406806 105.111466,24.7406806 94.9390272,24.7406806 L49.8219968,24.7406806 L49.8219968,11.5810916 Z" id="HandleLong" stroke="#8CD3F8" stroke-width="3.21888412" stroke-linecap="round" stroke-linejoin="round"></path>
            <polygon id="Handle" fill="#8CD3F8" points="70.8154506 11.2837886 109.44206 11.2837886 109.616183 24.6880439 70.873671 24.5537866"></polygon>
          </g>
        </g>
        <g id="Stump" transform="translate(61.158798, 146.394475)">
          <g id="StumpWhite" transform="translate(125.536481, 0.000000)" fill="#FFFFFF">
            <polygon id="StumpHighlight" points="0.123642033 0.882685452 0.123642033 7.46124263 140.696251 22.6530811 140.696251 16.0588158"></polygon>
          </g>
          <g id="StumpLightBlue" transform="translate(101.931330, 4.289362)" fill="#C2E8FF">
            <polygon id="Path-2" points="23.5695245 0.229228005 163.800547 16.065099 163.800547 70.735611 172.604278 85.9410631 187.370071 98.99974 0.683174624 98.99974 14.7511233 85.9410631 23.5695245 65.7320538"></polygon>
          </g>
          <g id="StumpDarkBlue">
            <path d="M127.145923,16.6012692 L127.145923,65.9289288 C126.524918,77.0349099 123.74891,85.0562292 118.817898,89.9928867 C113.886886,94.9295442 108.25803,99.5975866 101.93133,103.997014 L290.772532,103.997014 C283.679531,99.3583099 278.263731,93.7037755 274.525131,87.0334109 C270.786531,80.3630463 268.512775,72.4112916 267.703863,63.1781469 L267.703863,0.516162846 L127.145923,16.6012692 Z" id="StumpOutline" stroke="#8CD3F8" stroke-width="3.21888412" stroke-linecap="round" stroke-linejoin="round" transform="translate(196.351931, 52.256588) scale(-1, 1) translate(-196.351931, -52.256588) "></path>
            <path d="M291.768967,82.3324742 L300.429185,104.017021 L281.11588,104.017021 L289.776097,82.3324742 L289.776097,82.3324742 C289.995878,81.7821583 290.620165,81.514207 291.170481,81.7339882 C291.443557,81.8430472 291.659908,82.0593985 291.768967,82.3324742 Z" id="Grass4" fill="#8CD3F8"></path>
            <path d="M303.035062,90.3923232 L308.476395,104.017021 L295.600858,104.017021 L301.042192,90.3923232 L301.042192,90.3923232 C301.261973,89.8420073 301.88626,89.574056 302.436576,89.7938372 C302.709651,89.9028962 302.926003,90.1192475 303.035062,90.3923232 Z" id="Grass3" fill="#8CD3F8"></path>
            <path d="M97.0264779,82.3324742 L105.686695,104.017021 L86.3733906,104.017021 L95.0336079,82.3324742 L95.0336079,82.3324742 C95.2533891,81.7821583 95.8776761,81.514207 96.4279919,81.7339882 C96.7010676,81.8430472 96.9174189,82.0593985 97.0264779,82.3324742 Z" id="Grass2" fill="#8CD3F8" transform="translate(96.030043, 93.292317) scale(-1, 1) translate(-96.030043, -93.292317) "></path>
            <path d="M82.5414994,90.3923232 L87.9828326,104.017021 L75.1072961,104.017021 L80.5486294,90.3923232 L80.5486294,90.3923232 C80.7684105,89.8420073 81.3926975,89.574056 81.9430134,89.7938372 C82.2160891,89.9028962 82.4324404,90.1192475 82.5414994,90.3923232 Z" id="Grass1" fill="#8CD3F8" transform="translate(81.545064, 97.322242) scale(-1, 1) translate(-81.545064, -97.322242) "></path>
            <path d="M21.4592275,103.997014 L396.995708,103.997014" id="HorizonLine2" stroke="#8CD3F8" stroke-width="3.21888412" stroke-linecap="round" stroke-linejoin="round"></path>
            <path d="M0,103.997014 L12.8755365,103.997014" id="HorizonLine1" stroke="#8CD3F8" stroke-width="3.21888412" stroke-linecap="round" stroke-linejoin="round"></path>
            <path d="M243.025751,15.5289288 L243.025751,43.4097799 C243.405758,59.9892042 251.810622,72.4998425 268.240343,80.9416948" id="StumpLine6" stroke="#8CD3F8" stroke-width="3.21888412" stroke-linecap="round" stroke-linejoin="round"></path>
            <path d="M228.004292,13.384248 L228.004292,55.2055245 C226.748312,80.9039142 243.379912,93.7719993 277.899091,93.8097799" id="StumpLine5" stroke="#8CD3F8" stroke-width="3.21888412" stroke-linecap="round" stroke-linejoin="round"></path>
            <path d="M204.399142,10.1672267 L204.399142,103.460844" id="StumpLine4" stroke="#8CD3F8" stroke-width="3.21888412" stroke-linecap="round" stroke-linejoin="round"></path>
            <path d="M172.2103,5.87786497 L172.2103,103.460844" id="StumpLine3" stroke="#8CD3F8" stroke-width="3.21888412" stroke-linecap="round" stroke-linejoin="round"></path>
            <path d="M159.334764,4.80552455 L159.334764,64.8565884 C158.97711,90.4371384 141.239019,103.227413 106.12049,103.227413" id="StumpLine2" stroke="#8CD3F8" stroke-width="3.21888412" stroke-linecap="round" stroke-linejoin="round"></path>
            <path d="M141.094421,2.6608437 L141.094421,58.142633 C142.372753,81.751274 133.39718,93.5555945 114.167701,93.5555945" id="StumpLine1" stroke="#8CD3F8" stroke-width="3.21888412" stroke-linecap="round" stroke-linejoin="round"></path>
          </g>
        </g>
        <g id="Cloud2" transform="translate(99.785408, 25.736170)" stroke-linecap="round" stroke-width="3.21888412" stroke="#C2E8FF">
          <g id="Cloud2LightBlue">
            <path d="M47.2103004,18.7659574 L67.5965665,18.7659574 C66.8229306,12.9457195 68.7570204,8.07672845 73.3988357,4.15898437 C78.7290647,-0.209703291 85.0573364,0.769697473 88.4559206,2.27715259 C91.8545048,3.78460771 94.3784264,5.85572224 96.1280135,9.76391737 C96.8693418,11.409418 97.3731656,12.8015874 97.639485,13.9404255" id="Cloud2Outline4"></path>
            <path d="M89.055794,21.9829787 C90.1886554,18.0648521 92.513667,15.5031208 96.0308288,14.2977851 C101.306571,12.4897814 106.309097,14.8975731 108.307278,17.3202876 C110.305459,19.743002 110.938862,21.689237 111.316075,23.7202959 C111.56755,25.0743351 111.658186,26.6399102 111.587983,28.4170213 C116.031936,28.2362035 119.011744,29.1298205 120.527407,31.0978723 C122.360557,33.4501621 122.54864,36.2640085 121.88092,38.3361702 C121.213201,40.4083319 118.985549,43.4297872 114.806867,43.4297872 L30.0429185,43.4297872" id="Cloud2Outline3"></path>
            <path d="M19.3133047,29.4893617 L89.0563289,29.4893617" id="Cloud2Outline2"></path>
            <path d="M0,29.4893617 L8.58369099,29.4893617" id="Cloud2Outline1"></path>
          </g>
        </g>
        <g id="Cloud1" transform="translate(270.386266, 68.629787)" stroke-linecap="round" stroke-width="3.21888412" stroke="#C2E8FF">
          <g id="Cloud1LightBlue">
            <path d="M47.2103004,18.7659574 L67.5965665,18.7659574 C66.8229306,12.9457195 68.7570204,8.07672845 73.3988357,4.15898437 C78.7290647,-0.209703291 85.0573364,0.769697473 88.4559206,2.27715259 C91.8545048,3.78460771 94.3784264,5.85572224 96.1280135,9.76391737 C96.8693418,11.409418 97.3731656,12.8015874 97.639485,13.9404255" id="Cloud1Outline4"></path>
            <path d="M89.055794,21.9829787 C90.1886554,18.0648521 92.513667,15.5031208 96.0308288,14.2977851 C101.306571,12.4897814 106.309097,14.8975731 108.307278,17.3202876 C110.305459,19.743002 110.938862,21.689237 111.316075,23.7202959 C111.56755,25.0743351 111.658186,26.6399102 111.587983,28.4170213 C116.031936,28.2362035 119.011744,29.1298205 120.527407,31.0978723 C122.360557,33.4501621 122.54864,36.2640085 121.88092,38.3361702 C121.213201,40.4083319 118.985549,43.4297872 114.806867,43.4297872 L30.0429185,43.4297872" id="Cloud1Outline3"></path>
            <path d="M19.3133047,29.4893617 L89.0563289,29.4893617" id="Cloud1Outline2"></path>
            <path d="M0,29.4893617 L8.58369099,29.4893617" id="Cloud1Outline1"></path>
          </g>
        </g>
        <g id="Branch" transform="translate(120.171674, 143.177454)">
          <g id="BranchWhite" transform="translate(6.437768, 2.144681)" fill="#FFFFFF">
            <path d="M22.3369308,42.9646519 L22.3369308,4.27737667 C15.8991625,10.0510044 12.6802784,16.4988836 12.6802784,23.6210143 C12.6802784,30.743145 15.8991625,37.1910242 22.3369308,42.9646519 Z" id="LeafHighLight2" transform="translate(17.508605, 23.621014) scale(-1, -1) rotate(-45.000000) translate(-17.508605, -23.621014) "></path>
            <path d="M40.8511798,22.8714112 L40.8511798,-1.3081358 C36.8275747,2.30038151 34.8157721,6.33030601 34.8157721,10.7816377 C34.8157721,15.2329694 36.8275747,19.2628939 40.8511798,22.8714112 Z" id="LeafHighLight1" transform="translate(37.833476, 10.781638) scale(1, -1) rotate(-45.000000) translate(-37.833476, -10.781638) "></path>
          </g>
          <g id="BranchLightBlue" transform="translate(0.000000, 6.434043)" fill="#C2E8FF">
            <path d="M22.3369308,45.1093327 L22.3369308,6.42205752 C15.8991625,12.1956852 12.6802784,18.6435644 12.6802784,25.7656951 C12.6802784,32.8878258 15.8991625,39.335705 22.3369308,45.1093327 Z" id="LeafBkgd2" transform="translate(17.508605, 25.765695) rotate(-45.000000) translate(-17.508605, -25.765695) "></path>
            <path d="M51.423002,22.8714112 L51.423002,-1.3081358 C47.3993968,2.30038151 45.3875942,6.33030601 45.3875942,10.7816377 C45.3875942,15.2329694 47.3993968,19.2628939 51.423002,22.8714112 Z" id="LeafBkgd" transform="translate(48.405298, 10.781638) scale(-1, 1) rotate(-45.000000) translate(-48.405298, -10.781638) "></path>
          </g>
          <g id="BranchDarkBlue" stroke="#8CD3F8" stroke-width="3.21888412" stroke-linecap="round" stroke-linejoin="round">
            <path d="M64.3776824,69.1459501 C45.660933,62.6682176 36.1831076,53.0171538 35.944206,40.1927586 L35.944206,0.516162846" id="BranchLine"></path>
            <path d="M20.9227468,48.123871 C27.360515,42.3502433 30.5793991,35.9023641 30.5793991,28.7802334 C30.5793991,21.6581027 27.360515,15.2102234 20.9227468,9.43659574 C14.4849785,15.2102234 11.2660944,21.6581027 11.2660944,28.7802334 C11.2660944,35.9023641 14.4849785,42.3502433 20.9227468,48.123871 Z" id="Leafbig" transform="translate(20.922747, 28.780233) rotate(-45.000000) translate(-20.922747, -28.780233) "></path>
            <path d="M46.2714592,27.1682636 C50.2950644,23.5597462 52.306867,19.5298217 52.306867,15.07849 C52.306867,10.6271584 50.2950644,6.59723385 46.2714592,2.98871654 C42.2478541,6.59723385 40.2360515,10.6271584 40.2360515,15.07849 C40.2360515,19.5298217 42.2478541,23.5597462 46.2714592,27.1682636 Z" id="Leafsm" transform="translate(46.271459, 15.078490) scale(-1, 1) rotate(-45.000000) translate(-46.271459, -15.078490) "></path>
          </g>
        </g>
      </g>
    </g>
  </g>
</svg>
